<?xml version="1.0" encoding="iso-8859-1"?>
<svg version="1.1" xmlns="http://www.w3.org/2000/svg" xmlns:xlink="http://www.w3.org/1999/xlink" x="0px" y="0px"
	 viewBox="0 0 490.667 490.667" style="enable-background:new 0 0 490.667 490.667;" xml:space="preserve">
    <g fill="#e6c656">
        <path d="M419.243,72.491c-0.171-0.192-0.235-0.448-0.427-0.64c-0.192-0.192-0.448-0.256-0.64-0.427
            C373.803,27.328,312.704,0,245.333,0S116.864,27.328,72.491,71.424c-0.192,0.171-0.448,0.235-0.64,0.427
            c-0.192,0.192-0.256,0.448-0.427,0.64C27.328,116.864,0,177.963,0,245.333s27.328,128.469,71.424,172.843
            c0.171,0.192,0.235,0.448,0.427,0.64c0.192,0.192,0.448,0.256,0.64,0.427c44.373,44.096,105.472,71.424,172.843,71.424
            s128.469-27.328,172.843-71.424c0.192-0.171,0.448-0.235,0.64-0.427s0.256-0.448,0.427-0.64
            c44.096-44.373,71.424-105.472,71.424-172.843S463.339,116.864,419.243,72.491z M468.8,234.667h-42.667
            c-2.453-41.963-19.157-80.043-45.44-109.589l30.144-30.144C444.8,132.245,466.24,180.971,468.8,234.667z M256,21.867
            c53.696,2.539,102.421,24,139.755,57.963l-30.165,30.165C336.043,83.712,297.963,67.008,256,64.533V21.867z M234.667,21.867
            v42.667c-41.963,2.453-80.043,19.157-109.589,45.44L94.912,79.829C132.245,45.867,180.971,24.427,234.667,21.867z M79.829,94.912
            l30.144,30.144c-26.261,29.568-42.965,67.648-45.44,109.611H21.867C24.427,180.971,45.867,132.245,79.829,94.912z M21.867,256
            h42.667c2.453,41.963,19.157,80.043,45.44,109.589l-30.144,30.144C45.867,358.421,24.427,309.696,21.867,256z M234.667,468.779
            c-53.696-2.539-102.421-24-139.755-57.963l30.165-30.144c29.547,26.283,67.648,42.987,109.589,45.44V468.779z M85.333,245.333
            c0-88.235,71.765-160,160-160s160,71.765,160,160s-71.765,160-160,160S85.333,333.568,85.333,245.333z M255.979,468.8v-42.667
            H256c41.963-2.453,80.043-19.157,109.589-45.44l30.144,30.144C358.4,444.8,309.696,466.261,255.979,468.8z M410.837,395.755
            l-30.144-30.144c26.283-29.547,42.987-67.648,45.44-109.589H468.8C466.24,309.696,444.8,358.421,410.837,395.755z"/>
        <path d="M138.667,170.667c-5.888,0-10.667,4.779-10.667,10.667v128c0,5.888,4.779,10.667,10.667,10.667
            s10.667-4.779,10.667-10.667v-128C149.333,175.445,144.555,170.667,138.667,170.667z"/>
        <path d="M362.667,213.333c0-23.531-19.136-42.667-42.667-42.667s-42.667,19.136-42.667,42.667v64
            C277.333,300.864,296.469,320,320,320c23.531,0,42.667-19.136,42.667-42.667V213.333z M341.333,277.333
            c0,11.755-9.579,21.333-21.333,21.333s-21.333-9.579-21.333-21.333v-64c0-11.755,9.579-21.333,21.333-21.333
            s21.333,9.579,21.333,21.333V277.333z"/>
        <path d="M213.333,170.667c-23.531,0-42.667,19.136-42.667,42.667v64c0,23.531,19.136,42.667,42.667,42.667
            C236.864,320,256,300.864,256,277.333v-64C256,189.803,236.864,170.667,213.333,170.667z M234.667,277.333
            c0,11.755-9.579,21.333-21.333,21.333c-11.755,0-21.333-9.579-21.333-21.333v-64c0-11.755,9.579-21.333,21.333-21.333
            c11.755,0,21.333,9.579,21.333,21.333V277.333z"/>
    </g>
</svg> 